<?xml version="1.0" encoding="utf-8"?>
<svg viewBox="0 0 447.627 447.726" xmlns="http://www.w3.org/2000/svg">
  <defs>
    <linearGradient gradientUnits="userSpaceOnUse" x1="233.007" y1="0" x2="233.007" y2="448.015" id="gradient-0" gradientTransform="matrix(0.718944, -0.695066, 0.654722, 0.677213, -163.06752, 165.468292)">
      <stop offset="0" style="stop-color: rgb(75, 139, 190);"/>
      <stop offset="1" style="stop-color: rgb(48, 105, 152);"/>
    </linearGradient>
    <linearGradient gradientUnits="userSpaceOnUse" x1="283.271" y1="114.012" x2="283.271" y2="447.726" id="gradient-1" gradientTransform="matrix(0.743484, -0.668754, 0.878973, 0.977193, -182.70195, 192.624603)">
      <stop offset="0" style="stop-color: rgb(255, 232, 115);"/>
      <stop offset="1" style="stop-color: rgba(212, 166, 0, 1)"/>
    </linearGradient>
  </defs>
  <path d="M 167.801 216.101 L 274.601 216.101 C 304.301 216.101 328.001 191.601 328.001 161.801 L 328.001 59.901 C 328.001 30.901 303.601 9.201 274.601 4.301 C 238.801 -1.599 199.901 -1.299 167.801 4.401 C 122.601 12.401 114.401 29.101 114.401 60.001 L 114.401 100.701 L 221.301 100.701 L 221.301 114.301 L 74.301 114.301 C 43.201 114.301 16.001 133.001 7.501 168.501 C -2.299 209.201 -2.699 234.601 7.501 277.101 C 15.101 308.701 33.201 331.301 64.301 331.301 L 101.001 331.301 L 101.001 282.501 C 101.001 247.201 131.501 216.101 167.801 216.101 Z M 161.101 73.501 C 150.001 73.501 141.001 64.401 141.001 53.201 C 141.101 41.901 150.001 32.801 161.101 32.801 C 172.101 32.801 181.201 42.001 181.201 53.201 C 181.201 64.401 172.201 73.501 161.101 73.501 Z" style="paint-order: fill; fill: url(#gradient-0);"/>
  <path d="M 439.414 168.212 C 431.714 137.312 417.114 114.012 386.014 114.012 L 345.914 114.012 L 345.914 161.412 C 345.914 198.212 314.714 229.212 279.114 229.212 L 172.314 229.212 C 143.114 229.212 118.914 254.212 118.914 283.512 L 118.914 385.312 C 118.914 414.312 144.114 431.312 172.314 439.612 C 206.114 449.512 238.614 451.312 279.114 439.612 C 306.014 431.812 332.514 416.112 332.514 385.312 L 332.514 344.612 L 225.814 344.612 L 225.814 331.012 L 386.014 331.012 C 417.114 331.012 428.614 309.312 439.414 276.812 C 450.614 243.312 450.114 211.112 439.414 168.212 Z M 285.814 371.712 C 296.914 371.712 305.914 380.812 305.914 392.012 C 305.914 403.312 296.914 412.412 285.814 412.412 C 274.814 412.412 265.714 403.212 265.714 392.012 C 265.814 380.712 274.814 371.712 285.814 371.712 Z" style="paint-order: fill; fill: url(#gradient-1);"/>
</svg>